<svg xmlns="http://www.w3.org/2000/svg" viewBox="0 0 512 512">
  <defs>
    <linearGradient id="bg" x1="70" y1="55" x2="450" y2="470" gradientUnits="userSpaceOnUse">
      <stop stop-color="#6f4df3"/>
      <stop offset="0.52" stop-color="#17355a"/>
      <stop offset="1" stop-color="#07141e"/>
    </linearGradient>
    <linearGradient id="signal" x1="135" y1="150" x2="384" y2="372" gradientUnits="userSpaceOnUse">
      <stop stop-color="#ffffff"/>
      <stop offset="1" stop-color="#5ee7ff"/>
    </linearGradient>
    <filter id="glow" x="-40%" y="-40%" width="180%" height="180%">
      <feGaussianBlur stdDeviation="9" result="blur"/>
      <feMerge><feMergeNode in="blur"/><feMergeNode in="SourceGraphic"/></feMerge>
    </filter>
  </defs>
  <rect width="512" height="512" rx="112" fill="#080611"/>
  <rect x="28" y="28" width="456" height="456" rx="96" fill="url(#bg)" stroke="#5ee7ff" stroke-opacity=".28" stroke-width="4"/>
  <circle cx="256" cy="245" r="136" fill="#080611" fill-opacity=".48" stroke="#5ee7ff" stroke-opacity=".3" stroke-width="5"/>
  <path d="M153 260c28-51 59-77 94-77 39 0 57 35 84 35 15 0 28-8 42-24" fill="none" stroke="url(#signal)" stroke-width="22" stroke-linecap="round" filter="url(#glow)"/>
  <path d="M153 307c27-31 55-47 84-47 38 0 61 31 94 31 17 0 31-7 43-19" fill="none" stroke="#5ee7ff" stroke-width="14" stroke-linecap="round" opacity=".86"/>
  <text x="256" y="405" fill="#ffffff" font-family="Arial, Helvetica, sans-serif" font-size="78" font-weight="900" letter-spacing="8" text-anchor="middle">D50</text>
</svg>
